HIERARCHY
ROOT Hips
{
	OFFSET 0.000000 0.000000 0.000000 
	CHANNELS 6 Xposition Yposition Zposition Yrotation Xrotation Zrotation
	JOINT Spine
	{
		OFFSET 0.000000 0.072080 0.012321 
		CHANNELS 3 Xrotation Yrotation Zrotation
		JOINT Spine1
		{
			OFFSET 0.000000 0.126984 -0.001294 
			CHANNELS 3 Xrotation Yrotation Zrotation
			JOINT Spine2
			{
				OFFSET 0.000000 0.106559 -0.010096 
				CHANNELS 3 Xrotation Yrotation Zrotation
				JOINT Neck
				{
					OFFSET 0.000000 0.108417 -0.034017 
					CHANNELS 3 Xrotation Yrotation Zrotation
					JOINT Neck1
					{
						OFFSET 0.000000 0.033906 0.007241 
						CHANNELS 3 Xrotation Yrotation Zrotation
						JOINT Head
						{
							OFFSET 0.000000 0.031458 0.006707 
							CHANNELS 3 Xrotation Yrotation Zrotation
							End Site
							{
								OFFSET 0.000000 0.179920 0.000962 
							}
						}
					}
				}
				JOINT LeftShoulder
				{
					OFFSET 0.048002 0.079586 -0.029634 
					CHANNELS 3 Zrotation Xrotation Yrotation
					JOINT LeftArm
					{
						OFFSET 0.096243 -0.008695 -0.014012 
						CHANNELS 3 Zrotation Xrotation Yrotation
						JOINT LeftForeArm
						{
							OFFSET 0.216305 0.000000 0.000000 
							CHANNELS 3 Xrotation Zrotation Yrotation
							JOINT LeftHand
							{
								OFFSET 0.217764 0.000000 0.000000 
								CHANNELS 3 Zrotation Yrotation Xrotation
								JOINT LeftHandThumb1
								{
									OFFSET 0.018582 -0.007835 0.020476 
									CHANNELS 3 Zrotation Xrotation Yrotation
									JOINT LeftHandThumb2
									{
										OFFSET 0.026269 -0.007835 0.022186 
										CHANNELS 3 Zrotation Xrotation Yrotation
										JOINT LeftHandThumb3
										{
											OFFSET 0.035170 -0.010504 0.017018 
											CHANNELS 3 Zrotation Xrotation Yrotation
											End Site
											{
												OFFSET 0.020312 -0.007813 0.007813 
											}
										}
									}
								}
								JOINT LeftHandMiddle1
								{
									OFFSET 0.081749 0.004803 0.003358 
									CHANNELS 3 Zrotation Xrotation Yrotation
									JOINT LeftHandMiddle2
									{
										OFFSET 0.045251 0.000000 0.000000 
										CHANNELS 3 Zrotation Xrotation Yrotation
										JOINT LeftHandMiddle3
										{
											OFFSET 0.029009 0.000000 0.000000 
											CHANNELS 3 Zrotation Xrotation Yrotation
											End Site
											{
												OFFSET 0.017969 0.000000 0.000000 
											}
										}
									}
								}
								JOINT LeftHandIndex1
								{
									OFFSET 0.081207 0.004803 0.021137 
									CHANNELS 3 Zrotation Xrotation Yrotation
									JOINT LeftHandIndex2
									{
										OFFSET 0.043354 0.000000 0.000000 
										CHANNELS 3 Zrotation Xrotation Yrotation
										JOINT LeftHandIndex3
										{
											OFFSET 0.026493 0.000000 0.000000 
											CHANNELS 3 Zrotation Xrotation Yrotation
											End Site
											{
												OFFSET 0.019531 0.000000 0.000000 
											}
										}
									}
								}
								JOINT LeftHandRing1
								{
									OFFSET 0.080666 0.002509 -0.014652 
									CHANNELS 3 Zrotation Xrotation Yrotation
									JOINT LeftHandRing2
									{
										OFFSET 0.042541 0.000000 0.000000 
										CHANNELS 3 Zrotation Xrotation Yrotation
										JOINT LeftHandRing3
										{
											OFFSET 0.029009 0.000000 0.000000 
											CHANNELS 3 Zrotation Xrotation Yrotation
											End Site
											{
												OFFSET 0.015625 0.000000 0.000000 
											}
										}
									}
								}
								JOINT LeftHandPinky1
								{
									OFFSET 0.078227 -0.000612 -0.030993 
									CHANNELS 3 Zrotation Xrotation Yrotation
									JOINT LeftHandPinky2
									{
										OFFSET 0.028721 0.000000 0.000000 
										CHANNELS 3 Zrotation Xrotation Yrotation
										JOINT LeftHandPinky3
										{
											OFFSET 0.021963 0.000000 0.000000 
											CHANNELS 3 Zrotation Xrotation Yrotation
											End Site
											{
												OFFSET 0.022656 0.000000 0.000000 
											}
										}
									}
								}
							}
						}
					}
				}
				JOINT RightShoulder
				{
					OFFSET -0.047970 0.079586 -0.029634 
					CHANNELS 3 Zrotation Xrotation Yrotation
					JOINT RightArm
					{
						OFFSET -0.096274 -0.008695 -0.014012 
						CHANNELS 3 Zrotation Xrotation Yrotation
						JOINT RightForeArm
						{
							OFFSET -0.216305 0.000000 0.000000 
							CHANNELS 3 Xrotation Zrotation Yrotation
							JOINT RightHand
							{
								OFFSET -0.217764 0.000000 0.000000 
								CHANNELS 3 Zrotation Yrotation Xrotation
								JOINT RightHandThumb1
								{
									OFFSET -0.019670 -0.007318 0.019638 
									CHANNELS 3 Zrotation Xrotation Yrotation
									JOINT RightHandThumb2
									{
										OFFSET -0.025498 -0.008492 0.023179 
										CHANNELS 3 Zrotation Xrotation Yrotation
										JOINT RightHandThumb3
										{
											OFFSET -0.034504 -0.010705 0.016680 
											CHANNELS 3 Zrotation Xrotation Yrotation
											End Site
											{
												OFFSET -0.020312 -0.007813 0.007813 
											}
										}
									}
								}
								JOINT RightHandIndex1
								{
									OFFSET -0.081770 0.003825 0.021187 
									CHANNELS 3 Zrotation Xrotation Yrotation
									JOINT RightHandIndex2
									{
										OFFSET -0.042006 0.000000 0.000000 
										CHANNELS 3 Zrotation Xrotation Yrotation
										JOINT RightHandIndex3
										{
											OFFSET -0.026449 0.000000 0.000000 
											CHANNELS 3 Zrotation Xrotation Yrotation
											End Site
											{
												OFFSET -0.020312 0.000000 0.000000 
											}
										}
									}
								}
								JOINT RightHandMiddle1
								{
									OFFSET -0.084059 0.003825 0.003342 
									CHANNELS 3 Zrotation Xrotation Yrotation
									JOINT RightHandMiddle2
									{
										OFFSET -0.043881 0.000000 0.000000 
										CHANNELS 3 Zrotation Xrotation Yrotation
										JOINT RightHandMiddle3
										{
											OFFSET -0.029191 0.000000 0.000000 
											CHANNELS 3 Zrotation Xrotation Yrotation
											End Site
											{
												OFFSET -0.017969 0.000000 0.000000 
											}
										}
									}
								}
								JOINT RightHandRing1
								{
									OFFSET -0.081798 0.003030 -0.015127 
									CHANNELS 3 Zrotation Xrotation Yrotation
									JOINT RightHandRing2
									{
										OFFSET -0.042198 0.000000 0.000000 
										CHANNELS 3 Zrotation Xrotation Yrotation
										JOINT RightHandRing3
										{
											OFFSET -0.026497 0.000000 0.000000 
											CHANNELS 3 Zrotation Xrotation Yrotation
											End Site
											{
												OFFSET -0.017188 0.000000 0.000000 
											}
										}
									}
								}
								JOINT RightHandPinky1
								{
									OFFSET -0.077902 -0.000930 -0.030891 
									CHANNELS 3 Zrotation Xrotation Yrotation
									JOINT RightHandPinky2
									{
										OFFSET -0.028538 0.000000 0.000000 
										CHANNELS 3 Zrotation Xrotation Yrotation
										JOINT RightHandPinky3
										{
											OFFSET -0.021734 0.000000 0.000000 
											CHANNELS 3 Zrotation Xrotation Yrotation
											End Site
											{
												OFFSET -0.022656 0.000000 0.000000 
											}
										}
									}
								}
							}
						}
					}
				}
			}
		}
	}
	JOINT LeftUpLeg
	{
		OFFSET 0.075264 -0.025573 0.000000 
		CHANNELS 3 Xrotation Yrotation Zrotation
		JOINT LeftLeg
		{
			OFFSET 0.000000 -0.326016 -0.013516 
			CHANNELS 3 Xrotation Yrotation Zrotation
			JOINT LeftFoot
			{
				OFFSET 0.000098 -0.306172 -0.006623 
				CHANNELS 3 Xrotation Yrotation Zrotation
				JOINT LeftToeBase
				{
					OFFSET -0.001432 -0.095259 0.064705 
					CHANNELS 3 Xrotation Yrotation Zrotation
					End Site
					{
						OFFSET 0.000000 0.000000 0.079438 
					}
				}
			}
		}
	}
	JOINT RightUpLeg
	{
		OFFSET -0.075264 -0.025573 0.000000 
		CHANNELS 3 Xrotation Yrotation Zrotation
		JOINT RightLeg
		{
			OFFSET 0.000000 -0.326016 -0.013516 
			CHANNELS 3 Xrotation Yrotation Zrotation
			JOINT RightFoot
			{
				OFFSET 0.000098 -0.306172 -0.006623 
				CHANNELS 3 Xrotation Yrotation Zrotation
				JOINT RightToeBase
				{
					OFFSET -0.001432 -0.095259 0.064705 
					CHANNELS 3 Xrotation Yrotation Zrotation
					End Site
					{
						OFFSET 0.000025 0.000000 0.079438 
					}
				}
			}
		}
	}
}
MOTION
Frames: 7
Frame Time: 0.033333
-0.300263 0.741406 1.027013 -54.917301 -0.706500 5.676300 15.590300 -2.488300 -3.399100 -3.556700 -1.562700 0.304900 -3.502500 -1.567800 0.494300 4.137600 -8.605700 -1.093700 -0.000000 0.000000 -0.000000 -5.069600 -10.734600 7.755100 -1.937400 3.359900 2.431700 -70.728302 28.204700 -4.469400 4.313500 3.317300 -24.653000 7.063900 4.372100 -21.068399 -4.270000 6.049000 18.848900 1.027900 -0.950200 -0.921700 4.719000 -0.239000 4.728200 -18.416901 0.865500 1.591500 -25.110201 0.559600 -2.489200 -24.312599 0.516200 -2.419400 -11.344700 1.895600 -2.856900 -16.150400 0.179200 -1.598800 -22.868500 0.457900 -2.263500 -21.278099 0.213400 5.579200 -26.467400 0.612200 -2.612100 -23.475201 0.478000 -2.344500 -20.674700 0.123300 5.629000 -23.194401 0.471300 -2.326500 -21.254101 0.391200 -2.135600 2.612300 2.307700 -3.289600 73.571602 4.517200 5.318800 13.017500 8.606400 10.255200 -12.756500 0.487400 4.116100 -2.520700 2.836500 -19.742701 0.898900 -3.488900 12.272200 -3.322500 -2.640600 3.032200 24.373800 0.887800 -9.340200 19.036400 0.202400 1.485800 19.644199 0.268200 1.548200 25.701200 -0.443400 -5.895800 21.552700 0.318000 1.720800 21.475201 0.321000 1.719000 32.990601 -0.233700 -2.139800 24.942900 0.437900 1.970800 24.690201 0.419500 1.961800 40.037399 -0.484100 1.965300 29.385099 0.592300 2.306600 28.913401 0.570700 2.265200 -6.300900 14.670500 2.424900 23.295601 -8.180000 -1.795400 -17.887501 6.515700 -11.134400 7.758900 -9.344200 3.720000 -30.937599 -6.721500 -4.351900 62.976898 5.532300 -0.449100 -11.413900 0.170400 -1.169600 1.948600 -3.052200 2.608800 
-0.317812 0.740427 1.047003 -57.500500 -0.149400 5.627800 14.813600 -2.681000 -3.372500 -3.432000 -1.833200 0.389000 -3.365800 -1.822200 0.600900 4.901900 -8.034600 -0.691800 -0.000000 0.000000 -0.000000 -5.541800 -9.791200 6.636600 -2.234300 3.359200 2.085500 -70.027702 27.714701 -4.866700 4.168300 3.521500 -26.182699 7.247500 4.463900 -19.912300 -4.316300 5.809800 19.454399 1.022900 -0.963600 -0.975500 4.720200 -0.231900 4.748100 -19.108000 0.969800 1.393600 -25.395100 0.572100 -2.514300 -24.643200 0.530300 -2.450600 -12.122900 1.947000 -2.838900 -16.912800 0.201500 -1.673700 -23.761600 0.493600 -2.346500 -21.910700 0.375800 5.321600 -26.634899 0.619300 -2.626400 -23.503599 0.479400 -2.347000 -21.577600 0.254400 5.234900 -23.469101 0.482800 -2.351700 -21.659000 0.407500 -2.173900 2.224500 2.274100 -4.247000 73.558998 3.725200 3.846300 12.425900 8.802400 10.094200 -13.018800 0.206000 4.124200 -2.668600 2.569900 -20.086901 0.788100 -3.316200 11.534400 -3.442200 -2.371500 2.206600 24.493000 1.315200 -7.338900 19.595900 0.217500 1.528800 20.154699 0.282900 1.587100 26.013100 0.026800 -4.277300 22.133699 0.335200 1.763900 22.052500 0.339200 1.761900 33.091599 0.259200 -0.742200 25.477600 0.456400 2.010800 25.235001 0.438000 2.001300 39.870499 0.035200 3.109100 29.765200 0.607900 2.332000 29.321800 0.587300 2.293400 -2.643200 14.861600 1.117600 21.059999 -6.647100 -1.583300 -19.531500 7.588900 -11.239600 7.640400 -9.327300 3.830600 -31.898899 -8.758600 -3.016500 52.294300 0.218600 -0.711900 -12.802800 -0.080500 0.645200 2.986600 1.085000 -0.311100 
-0.336391 0.738767 1.065891 -59.796398 0.351600 5.747800 14.229400 -2.856800 -3.480800 -3.442600 -2.050800 0.485900 -3.363800 -2.029500 0.715700 5.504300 -7.106800 -1.064400 -0.000000 0.000000 -0.000000 -5.862000 -8.911300 6.493400 -2.187600 3.347500 1.824300 -69.554100 27.798500 -4.938500 3.112000 3.230400 -27.679800 7.638000 3.953800 -19.133301 -4.362000 5.532700 20.150000 1.016900 -0.979400 -1.037300 4.721900 -0.223800 4.771100 -19.903200 1.090800 1.166400 -25.723101 0.586100 -2.543400 -25.023800 0.546900 -2.486100 -13.018900 2.007400 -2.817300 -17.790400 0.228400 -1.759700 -24.789801 0.536700 -2.441700 -22.637699 0.563400 5.025800 -26.827700 0.627700 -2.643000 -23.536400 0.481000 -2.349900 -22.615999 0.406500 4.782600 -23.785299 0.496200 -2.380400 -22.125200 0.426500 -2.217700 2.122300 2.232300 -5.452200 73.314301 3.147300 2.472000 12.144100 9.064100 9.819900 -13.283400 -0.072800 4.142200 -2.805400 2.316900 -20.413500 0.678400 -3.137300 10.780900 -3.566200 -2.080000 1.319400 24.532000 1.745800 -5.239500 20.140400 0.232600 1.570500 20.636299 0.296900 1.623600 26.284300 0.514500 -2.573800 22.687401 0.352100 1.804600 22.601801 0.356900 1.802200 33.120800 0.758100 0.710000 26.004000 0.474900 2.049600 25.771601 0.456700 2.040000 39.624802 0.568200 4.286900 30.142099 0.623700 2.357500 29.727900 0.603900 2.321400 1.558200 15.006400 -0.496700 17.699900 -4.849700 -1.448700 -20.288700 8.121800 -11.631100 7.381100 -9.293000 4.072400 -32.026001 -11.103600 -1.471700 39.948898 -5.938600 -1.037700 -10.229600 1.045500 1.108800 2.680300 1.794200 -0.950200 
-0.355727 0.736522 1.083899 -61.692799 0.763700 5.978800 13.851600 -3.081000 -3.683300 -3.523600 -2.285700 0.607700 -3.428700 -2.254600 0.859500 4.885600 -6.431900 -1.218900 -0.000000 0.000000 -0.000000 -5.583700 -8.128700 6.105100 -2.150800 3.381700 1.978500 -68.840599 28.138599 -5.683700 1.941200 2.744800 -28.819599 7.469000 3.273300 -18.766399 -4.402700 5.227400 20.910801 1.010400 -0.996500 -1.105200 4.724400 -0.215300 4.796300 -20.774599 1.224400 0.918300 -26.082800 0.601500 -2.575500 -25.441299 0.565100 -2.524700 -14.001300 2.075200 -2.792400 -18.752701 0.259300 -1.853400 -25.917101 0.585700 -2.545400 -23.433399 0.770000 4.702400 -27.039101 0.637000 -2.661200 -23.572399 0.482800 -2.353100 -23.753500 0.574800 4.288300 -24.132000 0.510900 -2.411700 -22.636400 0.447800 -2.265700 2.221800 2.191100 -6.693600 72.895401 2.736700 1.211900 12.495200 9.213900 9.601300 -13.052900 -0.496100 4.190800 -2.928100 2.083100 -20.722300 0.570900 -2.957700 10.029900 -3.690400 -1.775600 0.399700 24.490299 2.169000 -3.094700 20.657000 0.247300 1.609900 21.079500 0.310100 1.657200 26.503201 1.006700 -0.829100 23.203300 0.368500 1.842500 23.112900 0.373600 1.839700 33.077900 1.252100 2.183000 26.509001 0.492500 2.085600 26.285999 0.474900 2.077100 39.306499 1.101800 5.473700 30.504101 0.639000 2.382000 30.118999 0.620000 2.348500 5.244000 15.353100 -1.856700 15.110400 -2.732600 -1.596400 -19.942600 7.708500 -12.998200 6.444400 -9.168300 4.944800 -31.310200 -13.789100 -0.091100 27.912600 -8.400700 -1.178600 -5.729000 2.010400 0.470700 0.557500 2.285400 -1.845600 
-0.375963 0.733516 1.101116 -63.039299 0.993100 6.257300 13.843000 -3.426100 -3.809500 -3.742300 -2.640700 0.770900 -3.622900 -2.593800 1.066200 4.013700 -5.910800 -1.581500 -0.000000 0.000000 -0.000000 -5.309800 -7.565600 5.763000 -2.149900 3.378700 2.039300 -67.836998 28.812901 -6.546900 1.707200 2.632800 -29.543800 8.044800 3.977000 -18.575500 -4.435100 4.903200 21.712400 1.003400 -1.014500 -1.177000 4.726900 -0.206100 4.823100 -21.694300 1.366500 0.657400 -26.462601 0.618300 -2.609300 -25.882200 0.584500 -2.565500 -15.038800 2.148400 -2.765000 -19.768900 0.293700 -1.951800 -27.107599 0.639900 -2.654100 -24.271900 0.989000 4.361700 -27.262400 0.646900 -2.680500 -23.610300 0.484700 -2.356400 -24.953300 0.754000 3.768400 -24.498199 0.526700 -2.444700 -23.176201 0.470600 -2.316300 2.116100 2.172000 -7.429700 72.451897 1.493000 0.209900 13.919600 9.401500 8.650400 -12.235000 0.170400 4.165800 -3.034300 1.874200 -21.012699 0.468200 -2.782100 9.299500 -3.810000 -1.467800 -0.523600 24.370100 2.574400 -0.957000 21.132799 0.261100 1.646100 21.475300 0.322000 1.687200 26.660601 1.490200 0.913500 23.671101 0.383900 1.876600 23.575399 0.389000 1.873500 32.965000 1.730100 3.643200 26.978500 0.509000 2.118800 26.764700 0.492100 2.111500 38.923599 1.623300 6.644100 30.838800 0.653500 2.404700 30.482599 0.635000 2.373700 7.337300 16.233299 -2.362500 15.604200 -0.769200 -2.137800 -19.131599 6.444300 -15.592500 4.380600 -8.889800 6.851000 -30.236300 -14.543900 1.073400 18.153999 -7.912400 -0.981300 -4.016000 2.534300 -0.516000 -0.491500 3.022300 -2.642700 
-0.397403 0.729586 1.117756 -63.790798 0.983700 6.526600 14.378400 -3.876200 -3.819200 -4.201200 -3.133400 1.051800 -4.044500 -3.056600 1.423000 3.676500 -5.526900 -2.149900 -0.000000 0.000000 -0.000000 -5.445800 -7.238000 5.500700 -2.800800 3.390400 1.978800 -66.943398 29.186701 -6.801600 1.414000 2.419200 -29.833700 8.061500 4.007100 -18.686300 -4.457000 4.570000 22.530100 0.996400 -1.033000 -1.250300 4.729700 -0.196800 4.850300 -22.634300 1.513100 0.391800 -26.851101 0.635900 -2.643700 -26.333099 0.604500 -2.606800 -16.100000 2.224900 -2.735400 -20.808500 0.330700 -2.051900 -28.325300 0.697800 -2.764400 -25.127701 1.214100 4.014300 -27.490900 0.657100 -2.700400 -23.649200 0.486600 -2.359800 -26.179100 0.939200 3.238700 -24.872900 0.543100 -2.478200 -23.728300 0.494400 -2.367700 1.604100 2.188100 -7.272900 72.311302 -0.085000 -1.220500 14.383400 9.580300 7.677500 -11.609900 -0.044300 4.203200 -3.121000 1.696100 -21.284500 0.372600 -2.614700 8.607700 -3.921800 -1.166300 -1.421800 24.176399 2.952400 1.120700 21.555000 0.273600 1.678200 21.814301 0.332400 1.712700 26.750700 1.952200 2.609800 24.080099 0.397600 1.906500 23.979099 0.402700 1.903100 32.786098 2.181500 5.056700 27.399300 0.524200 2.148400 27.193800 0.507500 2.142400 38.486099 2.119900 7.772600 31.134300 0.666500 2.424800 30.806101 0.648500 2.396100 8.751800 17.231300 -2.291400 17.738899 0.559400 -2.790300 -18.301901 5.000900 -18.547701 1.971300 -8.601900 8.977500 -29.691601 -11.919900 1.816400 11.749900 -7.590300 -0.523400 -3.569500 2.028400 -2.011100 -0.669100 2.745900 -2.477800 
-0.420755 0.725070 1.134188 -64.195702 0.960900 6.679700 14.565300 -4.276600 -3.663300 -4.494200 -3.663200 1.450100 -4.295600 -3.540500 1.891800 3.807300 -5.106300 -3.525900 -0.000000 0.000000 -0.000000 -5.848200 -7.142200 5.504600 -3.775600 3.419200 1.930900 -66.209801 29.211800 -6.712600 2.023600 2.515500 -29.556700 7.975000 3.357200 -18.881100 -4.467400 4.237800 23.340000 0.989400 -1.051300 -1.323000 4.732300 -0.187500 4.877300 -23.567101 1.659700 0.129300 -27.236799 0.653800 -2.677900 -26.781000 0.624900 -2.647300 -17.153601 2.302600 -2.704800 -21.840599 0.369100 -2.150500 -29.534100 0.757400 -2.872900 -25.975800 1.438300 3.670400 -27.717600 0.667500 -2.720200 -23.687599 0.488500 -2.363200 -27.394699 1.124500 2.715000 -25.244801 0.559500 -2.511300 -24.276600 0.518500 -2.418600 0.757900 2.207300 -7.488600 72.423203 -1.368300 -1.974400 14.591000 9.865400 6.182400 -10.832100 -0.822800 4.286300 -3.185600 1.554700 -21.537300 0.286300 -2.460300 7.972900 -4.022400 -0.881300 -2.265800 23.916599 3.294400 3.085600 21.911100 0.284300 1.705100 22.087299 0.340800 1.733300 26.769699 2.380400 4.216500 24.420200 0.409000 1.931300 24.313700 0.414200 1.927400 32.547501 2.596200 6.389800 27.757601 0.537300 2.173600 27.559900 0.521800 2.168400 38.006100 2.579900 8.833700 31.378500 0.677300 2.441400 31.076700 0.659900 2.414900 11.005900 17.566999 -2.508300 18.348000 0.987200 -2.956000 -17.729900 4.460300 -20.659700 0.450000 -8.570200 9.968200 -30.290600 -9.596700 2.015800 10.055400 -7.321800 -0.566200 -3.113000 1.648100 -3.215700 -0.346200 1.926600 -1.786500 
